<?xml version="1.0" standalone="no"?>
<!DOCTYPE svg PUBLIC "-//W3C//DTD SVG 20010904//EN"
 "http://www.w3.org/TR/2001/REC-SVG-20010904/DTD/svg10.dtd">
<svg version="1.0" xmlns="http://www.w3.org/2000/svg"
 width="482.000000pt" height="482.000000pt" viewBox="0 0 482.000000 482.000000"
 preserveAspectRatio="xMidYMid meet">
<metadata>
Created by potrace 1.11, written by Peter Selinger 2001-2013
</metadata>
<g transform="translate(0.000000,482.000000) scale(0.100000,-0.100000)"
fill="#000000" stroke="none">
<path d="M1333 4812 c-6 -4 -38 -7 -71 -7 -33 0 -59 -2 -57 -5 2 -3 -15 -7
-38 -8 -38 -2 -82 -8 -82 -12 0 -2 -31 -9 -60 -14 -51 -9 -74 -19 -68 -30 4
-8 3 -8 -6 0 -10 9 -23 8 -54 -4 -23 -9 -45 -21 -49 -27 -4 -5 -8 -6 -8 -1 0
5 -7 2 -17 -5 -9 -8 -19 -14 -22 -13 -14 1 -81 -30 -81 -38 0 -5 -4 -7 -8 -4
-4 2 -28 -9 -52 -25 -25 -16 -53 -35 -64 -42 -102 -67 -198 -160 -275 -264
-27 -37 -56 -75 -64 -85 -9 -9 -12 -19 -9 -23 4 -4 -1 -11 -11 -16 -9 -6 -17
-17 -17 -24 0 -8 -3 -15 -8 -15 -8 0 -58 -124 -51 -126 2 -1 -5 -11 -15 -23
-11 -12 -16 -21 -12 -21 3 0 0 -16 -8 -35 -8 -19 -12 -35 -9 -35 3 0 1 -6 -5
-12 -6 -7 -11 -17 -12 -23 0 -5 -3 -19 -6 -31 -3 -11 -7 -29 -9 -40 -2 -10 -4
-20 -5 -21 -2 -2 -4 -12 -5 -23 -1 -11 -3 -21 -4 -22 -5 -6 -13 -85 -14 -135
-1 -28 -5 -49 -8 -47 -10 6 -8 -310 2 -322 7 -8 6 -14 -1 -19 -7 -4 -7 -12 0
-26 8 -13 7 -19 0 -19 -6 0 -8 -5 -4 -12 8 -13 9 -16 17 -85 3 -23 8 -46 12
-52 3 -6 0 -11 -7 -11 -9 0 -10 -3 -2 -8 6 -4 16 -34 22 -67 19 -103 23 -119
29 -140 4 -11 8 -23 9 -27 1 -5 2 -9 4 -10 1 -2 3 -12 5 -22 2 -11 7 -31 11
-45 4 -14 7 -29 6 -33 -1 -5 3 -8 9 -8 6 0 9 -6 6 -14 -3 -8 -3 -17 1 -21 4
-4 8 -11 8 -16 1 -5 2 -10 3 -11 2 -2 5 -14 7 -28 2 -13 9 -27 15 -31 6 -3 10
-9 9 -13 -1 -4 1 -17 5 -29 4 -12 8 -24 9 -27 11 -39 72 -177 80 -182 6 -4 7
-8 2 -8 -4 0 -1 -11 8 -25 9 -13 16 -31 16 -40 0 -8 5 -15 10 -15 6 0 10 -8 8
-17 -2 -12 2 -17 12 -15 8 2 12 0 8 -4 -4 -4 -3 -13 3 -21 6 -7 9 -13 6 -13
-4 0 10 -28 29 -62 19 -35 38 -71 41 -81 3 -9 8 -17 12 -17 4 0 13 -16 21 -35
8 -19 17 -35 22 -35 4 0 8 -7 8 -16 0 -8 4 -12 10 -9 5 3 8 0 5 -7 -7 -19 32
-61 47 -52 9 6 9 3 -1 -9 -12 -15 -11 -20 7 -36 12 -10 19 -21 15 -25 -3 -3
-1 -6 5 -6 7 0 12 -6 12 -13 0 -7 8 -22 18 -33 16 -16 87 -116 117 -162 13
-20 52 -67 87 -105 15 -16 25 -33 23 -38 -3 -4 4 -10 15 -14 11 -3 20 -11 20
-16 0 -11 34 -52 111 -131 31 -32 55 -58 52 -58 -2 0 32 -35 74 -77 43 -43 80
-77 83 -77 3 1 12 -8 19 -20 8 -11 24 -27 34 -35 11 -8 27 -22 35 -32 9 -10
19 -16 23 -13 4 2 10 -5 14 -16 3 -11 10 -20 14 -20 4 0 24 -16 44 -35 20 -19
39 -35 42 -35 3 0 17 -10 30 -23 70 -64 79 -72 80 -67 0 3 21 -11 45 -32 82
-66 301 -208 312 -202 6 4 8 3 5 -3 -4 -6 11 -19 33 -29 22 -10 40 -23 40 -27
0 -5 4 -6 9 -2 5 3 16 -2 24 -10 9 -8 20 -15 25 -15 5 0 15 -7 22 -15 7 -8 16
-12 21 -9 5 3 9 0 9 -5 0 -6 9 -11 20 -11 11 0 20 -5 20 -11 0 -5 4 -7 10 -4
6 3 10 1 10 -5 0 -6 4 -8 10 -5 6 3 10 1 10 -4 0 -6 9 -11 20 -11 11 0 20 -4
20 -10 0 -5 5 -10 10 -10 6 0 29 -9 53 -19 59 -27 81 -34 90 -33 4 1 7 -3 7
-9 0 -5 4 -7 10 -4 6 3 10 1 10 -4 0 -6 3 -10 8 -9 4 0 15 -2 25 -5 9 -4 25
-10 35 -14 9 -3 20 -5 25 -5 4 1 7 -2 7 -6 0 -5 7 -9 15 -10 8 -1 22 -3 30 -4
8 -1 15 -6 15 -11 0 -6 3 -8 6 -4 3 3 29 -3 56 -14 28 -11 53 -17 56 -14 3 2
11 0 18 -6 8 -6 20 -9 28 -6 8 3 16 1 18 -4 2 -6 21 -13 43 -16 22 -3 46 -10
53 -15 8 -7 12 -6 12 3 0 9 3 10 8 3 4 -6 14 -12 22 -12 22 -2 65 -10 65 -12
0 -3 62 -12 97 -13 21 -1 38 -4 38 -7 0 -3 28 -6 62 -8 34 -2 66 -6 71 -9 6
-4 7 -1 2 6 -5 10 -3 11 11 4 22 -11 84 -11 101 0 6 4 14 3 17 -1 6 -10 36 -9
53 1 6 4 14 3 18 -3 4 -6 11 -7 17 -4 6 4 38 8 72 9 33 2 61 4 61 5 0 2 89 16
123 19 7 1 11 5 8 10 -3 4 6 6 19 3 14 -2 25 0 25 6 0 6 8 8 19 5 10 -2 24 1
32 9 8 7 23 13 34 12 11 0 29 4 40 10 11 6 25 11 30 11 6 1 9 6 8 13 -2 6 3 9
11 6 23 -9 176 69 224 114 7 6 18 12 23 12 6 0 7 4 4 10 -3 5 0 7 9 4 9 -3 20
3 28 15 7 12 17 21 22 21 9 0 144 134 184 183 12 15 22 32 22 37 0 6 5 10 10
10 6 0 10 7 10 16 0 8 5 12 10 9 6 -3 10 -1 10 5 0 7 9 24 20 40 11 15 17 30
13 33 -3 4 2 9 11 13 9 3 14 10 11 14 -3 5 2 16 11 24 8 9 13 16 9 16 -3 0 2
12 12 27 9 14 18 31 19 37 1 6 11 35 23 64 11 28 18 52 14 52 -3 0 2 10 13 22
12 13 13 18 4 13 -13 -8 -13 -7 -1 8 8 10 11 20 8 24 -4 3 -2 12 5 20 6 8 13
24 14 36 1 12 5 36 9 52 11 53 18 109 19 147 0 20 4 34 7 32 11 -7 9 339 -2
352 -6 8 -7 14 0 18 5 4 6 18 2 34 -4 15 -6 37 -5 50 1 12 -3 25 -8 28 -5 3
-4 12 3 20 8 10 8 14 0 14 -6 0 -10 3 -9 8 3 16 -15 132 -21 132 -4 0 -7 15
-6 33 0 17 -2 37 -6 42 -7 11 -23 86 -21 98 1 4 -2 7 -7 7 -7 0 -15 27 -23 88
-1 6 -5 12 -10 12 -5 0 -7 4 -4 8 4 6 -37 136 -61 192 -3 8 -7 18 -8 23 -2 4
-4 10 -5 15 -1 4 -2 10 -1 15 0 4 -4 7 -9 7 -6 0 -10 9 -10 20 0 11 -4 20 -8
20 -4 0 -8 10 -9 22 -1 11 -8 25 -15 29 -7 5 -9 9 -4 9 5 0 4 6 -2 13 -6 6
-10 15 -9 19 1 4 -5 15 -13 25 -8 10 -17 27 -18 38 -2 11 -8 22 -13 23 -5 2
-7 8 -3 13 3 5 1 9 -4 9 -6 0 -13 12 -17 28 -3 15 -18 43 -31 64 -14 20 -27
44 -28 53 -1 9 -8 20 -15 24 -7 5 -12 10 -11 12 4 9 -24 59 -32 59 -5 0 -6 5
-3 10 3 6 2 10 -4 10 -6 0 -13 11 -17 25 -3 14 -10 25 -15 25 -5 0 -9 5 -9 10
0 12 -41 73 -52 78 -5 2 -8 13 -8 23 0 11 -4 17 -10 14 -5 -3 -10 0 -10 8 0 8
-12 28 -27 45 -16 17 -29 36 -31 43 -2 7 -11 18 -20 26 -9 7 -14 13 -10 13 8
0 -13 28 -49 67 -13 13 -23 28 -23 33 0 6 -4 10 -8 10 -4 0 -15 12 -24 28 -9
15 -34 46 -55 69 -21 24 -49 57 -63 75 -14 18 -52 61 -86 95 -33 35 -59 63
-57 63 3 0 -35 38 -83 85 -48 47 -91 85 -96 85 -5 0 -6 5 -3 10 3 6 1 10 -5
10 -7 0 -27 16 -46 35 -18 19 -38 35 -44 35 -5 0 -10 4 -10 9 0 4 -27 30 -61
56 -34 26 -72 59 -85 72 -13 13 -24 21 -24 18 0 -4 -7 1 -16 9 -8 9 -46 37
-82 63 -37 26 -68 51 -70 55 -2 5 -10 8 -18 8 -8 0 -14 5 -14 10 0 6 -7 10
-15 10 -8 0 -15 3 -15 8 0 9 -62 46 -72 44 -5 -1 -8 3 -8 10 0 6 -3 8 -6 5 -4
-4 -15 3 -25 14 -9 11 -19 19 -21 18 -3 -3 -29 12 -73 39 -11 7 -28 15 -37 18
-10 4 -18 10 -18 15 0 5 -9 9 -20 9 -11 0 -20 5 -20 10 0 6 -9 10 -19 10 -11
0 -21 3 -23 8 -5 12 -125 72 -132 65 -3 -4 -6 -1 -6 6 0 7 -4 9 -10 6 -5 -3
-10 -1 -10 4 0 6 -6 11 -13 11 -8 0 -27 6 -43 14 -25 13 -77 35 -94 41 -10 4
-46 18 -89 36 -24 10 -47 17 -51 14 -5 -3 -14 1 -22 8 -7 7 -25 12 -40 12 -15
-1 -24 3 -22 7 5 8 -10 12 -33 9 -7 -1 -13 3 -13 9 0 6 -4 9 -10 5 -5 -3 -25
1 -45 9 -20 9 -34 12 -31 7 3 -4 -1 -8 -9 -8 -8 0 -12 4 -10 8 3 3 -4 9 -15
12 -13 3 -18 1 -13 -6 5 -9 3 -9 -8 0 -16 13 -59 24 -101 26 -16 1 -28 6 -28
11 0 5 -8 2 -17 -5 -11 -10 -14 -10 -9 -1 5 8 1 12 -11 13 -52 2 -93 8 -104
14 -8 6 -10 4 -4 -5 6 -9 4 -11 -6 -5 -7 5 -32 10 -54 12 -22 1 -57 4 -77 6
-21 2 -43 0 -50 -4 -6 -4 -19 -4 -28 1 -9 5 -22 5 -30 0 -8 -5 -21 -5 -30 0
-9 5 -21 6 -27 2z m272 -101 c3 -5 2 -12 -3 -15 -5 -3 -9 1 -9 9 0 17 3 19 12
6z m-320 -39 c-3 -3 -11 0 -18 7 -9 10 -8 11 6 5 10 -3 15 -9 12 -12z m9 -190
c3 -5 -1 -9 -9 -9 -8 0 -12 4 -9 9 3 4 7 8 9 8 2 0 6 -4 9 -8z m1031 -51 c3
-5 2 -12 -3 -15 -5 -3 -9 1 -9 9 0 17 3 19 12 6z m-160 -10 c3 -5 2 -12 -3
-15 -5 -3 -9 1 -9 9 0 17 3 19 12 6z m-875 -97 c0 -8 -19 -13 -24 -6 -3 5 1 9
9 9 8 0 15 -2 15 -3z m-922 -69 c-3 -3 -9 2 -12 12 -6 14 -5 15 5 6 7 -7 10
-15 7 -18z m1477 16 c3 -5 2 -12 -3 -15 -5 -3 -9 1 -9 9 0 17 3 19 12 6z
m-960 -10 c3 -5 2 -12 -3 -15 -5 -3 -9 1 -9 9 0 17 3 19 12 6z m409 -19 c3 -5
-1 -9 -9 -9 -8 0 -12 4 -9 9 3 4 7 8 9 8 2 0 6 -4 9 -8z m286 -58 c0 -8 -19
-13 -24 -6 -3 5 1 9 9 9 8 0 15 -2 15 -3z m235 -3 c-9 -8 -36 -10 -30 -2 2 4
11 8 20 8 8 0 13 -3 10 -6z m-610 -70 c3 -5 2 -12 -3 -15 -5 -3 -9 1 -9 9 0
17 3 19 12 6z m322 -16 c0 -8 -4 -12 -9 -9 -5 3 -6 10 -3 15 9 13 12 11 12 -6z
m1677 -61 c3 -8 2 -12 -4 -9 -6 3 -10 10 -10 16 0 14 7 11 14 -7z m-714 -90
c0 -8 -19 -13 -24 -6 -3 5 1 9 9 9 8 0 15 -2 15 -3z m317 -159 c0 -8 -4 -12
-9 -9 -5 3 -6 10 -3 15 9 13 12 11 12 -6z m638 6 c3 -5 2 -12 -3 -15 -5 -3 -9
1 -9 9 0 17 3 19 12 6z m-234 -28 c13 -16 12 -17 -3 -4 -17 13 -22 21 -14 21
2 0 10 -8 17 -17z m-1687 -141 c3 -5 -1 -9 -9 -9 -8 0 -12 4 -9 9 3 4 7 8 9 8
2 0 6 -4 9 -8z m23 -87 c0 -8 -4 -12 -9 -9 -4 3 -8 9 -8 15 0 5 4 9 8 9 5 0 9
-7 9 -15z m-17 -71 c0 -8 -19 -13 -24 -6 -3 5 1 9 9 9 8 0 15 -2 15 -3z m954
-2 c3 -5 -1 -9 -9 -9 -8 0 -12 4 -9 9 3 4 7 8 9 8 2 0 6 -4 9 -8z m643 -157
c0 -8 -4 -12 -9 -9 -5 3 -6 10 -3 15 9 13 12 11 12 -6z m638 -4 c3 -5 2 -12
-3 -15 -5 -3 -9 1 -9 9 0 17 3 19 12 6z m-3620 -80 c3 -5 2 -12 -3 -15 -5 -3
-9 1 -9 9 0 17 3 19 12 6z m1862 -86 c0 -8 -4 -12 -9 -9 -5 3 -6 10 -3 15 9
13 12 11 12 -6z m1447 7 c3 -5 -1 -9 -9 -9 -8 0 -12 4 -9 9 3 4 7 8 9 8 2 0 6
-4 9 -8z m-3280 -100 c3 -5 -1 -9 -9 -9 -8 0 -12 4 -9 9 3 4 7 8 9 8 2 0 6 -4
9 -8z m3686 -38 c0 -8 -19 -13 -24 -6 -3 5 1 9 9 9 8 0 15 -2 15 -3z m-1053
-29 c0 -8 -4 -12 -9 -9 -5 3 -6 10 -3 15 9 13 12 11 12 -6z m-2340 -80 c0 -8
-4 -12 -9 -9 -5 3 -6 10 -3 15 9 13 12 11 12 -6z m1623 11 c0 -2 -7 -7 -16
-10 -8 -3 -12 -2 -9 4 6 10 25 14 25 6z m874 -84 c3 -5 -1 -9 -9 -9 -8 0 -12
4 -9 9 3 4 7 8 9 8 2 0 6 -4 9 -8z m82 -48 c1 -9 0 -13 -4 -10 -3 4 -7 14 -8
22 -1 9 0 13 4 10 3 -4 7 -14 8 -22z m-2823 -29 c-3 -9 -8 -14 -10 -11 -3 3
-2 9 2 15 9 16 15 13 8 -4z m2551 -3 c3 -5 -1 -9 -9 -9 -8 0 -12 4 -9 9 3 4 7
8 9 8 2 0 6 -4 9 -8z m-1727 -77 c0 -8 -4 -12 -9 -9 -5 3 -6 10 -3 15 9 13 12
11 12 -6z m2237 -3 c3 -5 -1 -9 -9 -9 -8 0 -12 4 -9 9 3 4 7 8 9 8 2 0 6 -4 9
-8z m1086 -158 c0 -8 -19 -13 -24 -6 -3 5 1 9 9 9 8 0 15 -2 15 -3z m-3630
-160 c0 -8 -19 -13 -24 -6 -3 5 1 9 9 9 8 0 15 -2 15 -3z m2874 -2 c3 -5 -1
-9 -9 -9 -8 0 -12 4 -9 9 3 4 7 8 9 8 2 0 6 -4 9 -8z m-1829 -71 c3 -5 2 -12
-3 -15 -5 -3 -9 1 -9 9 0 17 3 19 12 6z m2040 0 c3 -5 2 -12 -3 -15 -5 -3 -9
1 -9 9 0 17 3 19 12 6z m425 -87 c0 -8 -19 -13 -24 -6 -3 5 1 9 9 9 8 0 15 -2
15 -3z m-3363 -159 c0 -8 -4 -12 -9 -9 -5 3 -6 10 -3 15 9 13 12 11 12 -6z
m638 -4 c3 -5 2 -12 -3 -15 -5 -3 -9 1 -9 9 0 17 3 19 12 6z m482 -316 c0 -8
-4 -12 -9 -9 -5 3 -6 10 -3 15 9 13 12 11 12 -6z m-960 -10 c0 -8 -4 -12 -9
-9 -5 3 -6 10 -3 15 9 13 12 11 12 -6z m643 9 c0 -8 -19 -13 -24 -6 -3 5 1 9
9 9 8 0 15 -2 15 -3z m1191 -31 c13 -16 12 -17 -3 -4 -17 13 -22 21 -14 21 2
0 10 -8 17 -17z m-1834 -128 c0 -8 -4 -12 -9 -9 -5 3 -6 10 -3 15 9 13 12 11
12 -6z m333 -1 c0 -8 -19 -13 -24 -6 -3 5 1 9 9 9 8 0 15 -2 15 -3z m3034 -2
c3 -5 -1 -9 -9 -9 -8 0 -12 4 -9 9 3 4 7 8 9 8 2 0 6 -4 9 -8z m-2090 -160 c3
-5 -1 -9 -9 -9 -8 0 -12 4 -9 9 3 4 7 8 9 8 2 0 6 -4 9 -8z m-1204 -76 c0 -2
-8 -10 -17 -17 -16 -13 -17 -12 -4 4 13 16 21 21 21 13z m3050 -6 c0 -5 -2
-10 -4 -10 -3 0 -8 5 -11 10 -3 6 -1 10 4 10 6 0 11 -4 11 -10z m-1043 -75 c0
-8 -4 -12 -9 -9 -5 3 -6 10 -3 15 9 13 12 11 12 -6z m-793 -3 c3 -5 -1 -9 -9
-9 -8 0 -12 4 -9 9 3 4 7 8 9 8 2 0 6 -4 9 -8z m953 -7 c0 -8 -4 -12 -9 -9 -5
3 -6 10 -3 15 9 13 12 11 12 -6z m-1433 -153 c3 -5 -1 -9 -9 -9 -8 0 -12 4 -9
9 3 4 7 8 9 8 2 0 6 -4 9 -8z m2566 2 c0 -8 -19 -13 -24 -6 -3 5 1 9 9 9 8 0
15 -2 15 -3z m-2830 -68 c0 -2 -8 -10 -17 -17 -16 -13 -17 -12 -4 4 13 16 21
21 21 13z m1224 -94 c3 -5 -1 -9 -9 -9 -8 0 -12 4 -9 9 3 4 7 8 9 8 2 0 6 -4
9 -8z m1596 2 c0 -8 -19 -13 -24 -6 -3 5 1 9 9 9 8 0 15 -2 15 -3z m-2390
-160 c0 -8 -19 -13 -24 -6 -3 5 1 9 9 9 8 0 15 -2 15 -3z m1427 -9 c0 -8 -4
-12 -9 -9 -5 3 -6 10 -3 15 9 13 12 11 12 -6z m-480 -150 c0 -8 -4 -12 -9 -9
-5 3 -6 10 -3 15 9 13 12 11 12 -6z m-886 -112 c13 -16 12 -17 -3 -4 -17 13
-22 21 -14 21 2 0 10 -8 17 -17z m419 -49 c0 -8 -19 -13 -24 -6 -3 5 1 9 9 9
8 0 15 -2 15 -3z m-199 -91 c13 -16 12 -17 -3 -4 -17 13 -22 21 -14 21 2 0 10
-8 17 -17z m509 -69 c0 -8 -19 -13 -24 -6 -3 5 1 9 9 9 8 0 15 -2 15 -3z m-45
-83 c3 -5 2 -12 -3 -15 -5 -3 -9 1 -9 9 0 17 3 19 12 6z"/>
</g>
</svg>
