<?xml version="1.0" encoding="utf-8"?>
<!-- Generator: Adobe Illustrator 23.0.3, SVG Export Plug-In . SVG Version: 6.00 Build 0)  -->
<svg version="1.1" id="Ebene_1" xmlns="http://www.w3.org/2000/svg" xmlns:xlink="http://www.w3.org/1999/xlink" x="0px" y="0px"
	 viewBox="0 0 595.28 841.89" style="enable-background:new 0 0 595.28 841.89;" xml:space="preserve">
<style type="text/css">
	.st5{fill:none;stroke:#B04B26;opacity:0.5;stroke-miterlimit:10;}
	.st15{fill:none;stroke:#EC613D;opacity:0.4;stroke-width:2;stroke-miterlimit:10;}
</style>
<g>
	<path class="st15" d="M435.4,442.21c0,77.6-62.78,140.51-140.22,140.51s-140.22-62.91-140.22-140.51
		c0-34.07,12.1-65.31,32.23-89.64c25.72-31.08,64.55-50.88,107.99-50.88C372.62,301.7,435.4,364.61,435.4,442.21z"/>
	<path class="st15" d="M588.94,472.14c0,77.6-62.78,140.51-140.22,140.51S308.5,549.74,308.5,472.14c0-34.07,12.1-65.31,32.23-89.64
		c25.72-31.08,64.55-50.88,107.99-50.88C526.16,331.62,588.94,394.53,588.94,472.14z"/>
	<path class="st15" d="M690.43,610.07c0,77.6-62.78,140.51-140.22,140.51s-140.22-62.91-140.22-140.51
		c0-34.07,12.1-65.31,32.23-89.64c25.72-31.08,64.55-50.88,107.99-50.88C627.65,469.55,690.43,532.46,690.43,610.07z"/>
	<path class="st15" d="M729.47,714.16c0,77.6-62.78,140.51-140.22,140.51s-140.22-62.91-140.22-140.51
		c0-34.07,12.1-65.31,32.23-89.64c25.72-31.08,64.55-50.88,107.99-50.88C666.69,573.65,729.47,636.56,729.47,714.16z"/>
	<path class="st15" d="M700.84,831.27c0,77.6-62.78,140.51-140.22,140.51S420.4,908.87,420.4,831.27c0-34.07,12.1-65.31,32.23-89.64
		c25.72-31.08,64.55-50.88,107.99-50.88C638.06,690.76,700.84,753.67,700.84,831.27z"/>
</g>
<path class="st5" d="M312.67,466.28c0,77.44-62.78,140.22-140.22,140.22S32.23,543.73,32.23,466.28c0-34,12.1-65.17,32.23-89.45
	c25.72-31.02,64.55-50.77,107.99-50.77C249.89,326.06,312.67,388.84,312.67,466.28z"/>
<path class="st5" d="M156.53,575.58c0,77.44-62.78,140.22-140.22,140.22s-140.22-62.78-140.22-140.22c0-34,12.1-65.17,32.23-89.45
	c25.72-31.02,64.55-50.77,107.99-50.77C93.75,435.36,156.53,498.14,156.53,575.58z"/>
<path class="st5" d="M135.71,681.42c0,77.44-62.78,140.22-140.22,140.22s-140.22-62.78-140.22-140.22c0-34,12.1-65.17,32.23-89.45
	c25.72-31.02,64.55-50.77,107.99-50.77C72.93,541.19,135.71,603.97,135.71,681.42z"/>
<path class="st5" d="M161.73,889.61c0,77.44-62.78,140.22-140.22,140.22s-140.22-62.78-140.22-140.22c0-34,12.1-65.17,32.23-89.45
	c25.72-31.02,64.55-50.77,107.99-50.77C98.95,749.39,161.73,812.17,161.73,889.61z"/>
<path class="st5" d="M213.78,972.89c0,77.44-62.78,140.22-140.22,140.22s-140.22-62.78-140.22-140.22c0-34,12.1-65.17,32.23-89.45
	c25.72-31.02,64.55-50.77,107.99-50.77C151,832.66,213.78,895.44,213.78,972.89z"/>
<path class="st5" d="M434.12,441.99c0,77.44-62.78,140.22-140.22,140.22s-140.22-62.78-140.22-140.22c0-34,12.1-65.17,32.23-89.45
	c25.72-31.02,64.55-50.77,107.99-50.77C371.34,301.77,434.12,364.55,434.12,441.99z"/>
</svg>
