<?xml version="1.0" encoding="utf-8"?>
<!-- Generator: Adobe Illustrator 23.0.3, SVG Export Plug-In . SVG Version: 6.00 Build 0)  -->
<svg version="1.1" id="Ebene_1" xmlns="http://www.w3.org/2000/svg" xmlns:xlink="http://www.w3.org/1999/xlink" x="0px" y="0px"
	 viewBox="0 0 595.28 595.28" style="enable-background:new 0 0 595.28 595.28;" xml:space="preserve">
<style type="text/css">
	.st0{opacity:0.69;fill:#EC613D;}
	.st1{fill:#AF4B27;}
</style>
<text transform="matrix(1.0344 0 0 1 -1067.4784 256.1947)"><tspan x="0" y="0" style="fill:#EC613D; font-family:'GoodPro-Light'; font-size:41.4356px; letter-spacing:5.8;">manoaman</tspan><tspan x="230.01" y="0" style="fill:#EC613D; font-family:'GoodPro-Light'; font-size:41.4356px;">o</tspan></text>
<text transform="matrix(1.0344 0 0 1 -1697.2611 237.6645)"><tspan x="0" y="0" style="fill:#EC613D; font-family:'GoodPro-Light'; font-size:41.4356px; letter-spacing:5.8;">manoaman</tspan><tspan x="230.01" y="0" style="fill:#EC613D; font-family:'GoodPro-Light'; font-size:41.4356px;">o</tspan></text>
<rect x="-1701.78" y="249.05" style="fill:none;" width="268.92" height="54.65"/>
<text transform="matrix(1 0 0 1 -1697.7211 266.8112)"><tspan x="0" y="0" class="st1" style="font-family:'Poppins-Medium'; font-size:24px;">direkt. fair. persönlich.</tspan><tspan x="54.08" y="16.8" style="fill:#EC613D; font-family:'Poppins-Medium'; font-size:14px;">Cooperativa ElGuineo</tspan></text>
<ellipse transform="matrix(0.7326 -0.6807 0.6807 0.7326 -103.6209 280.2922)" class="st0" cx="304.89" cy="272.02" rx="31.59" ry="48.64"/>
<g>
	<path class="st1" d="M337.79,306.97c3.41-2.56-3.82-33.5-35.97-42.9c0,0-0.83,2.22,3.49,4.15c0,0,5.05,5.54,7.69,5.68
		c0,0,7.92,8.99,9.87,9.68l-7.94-4.7c0,0-6.86-0.3-2.12,4.12l12.54,10.48l4.38,15.26L337.79,306.97z"/>
</g>
<g>
	<path class="st1" d="M267.64,241.91c-2.84,3.18,10.3,32.11,43.66,35.04c0,0,0.38-2.34-4.23-3.39c0,0-6.03-4.45-8.65-4.06
		c0,0-9.52-7.26-11.57-7.56l8.71,3.06c0,0,6.78-1.04,1.27-4.46l-14.34-7.82l-7.28-14.11L267.64,241.91z"/>
</g>
<text transform="matrix(1.0344 0 0 1 -447.9495 234.4943)"><tspan x="0" y="0" style="fill:#EC613D; font-family:'GoodPro-Light'; font-size:41.4356px; letter-spacing:5.8;">manoaman</tspan><tspan x="230.01" y="0" style="fill:#EC613D; font-family:'GoodPro-Light'; font-size:41.4356px;">o</tspan></text>
<ellipse transform="matrix(0.7326 -0.6807 0.6807 0.7326 -264.1362 -144.3976)" class="st0" cx="-315.83" cy="263.95" rx="15.21" ry="23.42"/>
<g>
	<path class="st1" d="M-299.99,280.77c1.64-1.23-1.84-16.13-17.32-20.66c0,0-0.4,1.07,1.68,2c0,0,2.43,2.67,3.7,2.73
		c0,0,3.81,4.33,4.75,4.66l-3.82-2.26c0,0-3.3-0.15-1.02,1.99l6.04,5.04l2.11,7.35L-299.99,280.77z"/>
</g>
<g>
	<path class="st1" d="M-333.77,249.45c-1.37,1.53,4.96,15.46,21.02,16.87c0,0,0.18-1.13-2.04-1.63c0,0-2.91-2.14-4.17-1.96
		c0,0-4.58-3.5-5.57-3.64l4.19,1.47c0,0,3.27-0.5,0.61-2.15l-6.91-3.77l-3.5-6.8L-333.77,249.45z"/>
</g>
<rect x="-449.94" y="290.7" style="fill:none;" width="268.92" height="54.65"/>
<text transform="matrix(1 0 0 1 -445.8792 308.4603)"><tspan x="0" y="0" class="st1" style="font-family:'Poppins-Medium'; font-size:24px;">direkt. fair. persönlich.</tspan><tspan x="54.08" y="16.8" style="fill:#EC613D; font-family:'Poppins-Medium'; font-size:14px;">Cooperativa ElGuineo</tspan></text>
</svg>
