<svg id="Ebene_1" data-name="Ebene 1" xmlns="http://www.w3.org/2000/svg" viewBox="0 0 315.52 344.15"><defs><style>.cls-1{fill:#ec613d;opacity:0.69;isolation:isolate;}.cls-2{fill:#af4b27;}</style></defs><title>Zeichenfläche 1</title><ellipse class="cls-1" cx="168.28" cy="158.83" rx="31.59" ry="48.64" transform="translate(-63.11 157.02) rotate(-42.9)"/><path class="cls-2" d="M201.16,193.77c3.41-2.56-3.82-33.5-36-42.9,0,0-.83,2.22,3.49,4.15,0,0,5,5.54,7.69,5.68,0,0,7.92,9,9.87,9.68l-7.94-4.7s-6.86-.3-2.12,4.12l12.54,10.48,4.38,15.26Z"/><path class="cls-2" d="M131,128.71c-2.84,3.18,10.3,32.11,43.66,35,0,0,.38-2.34-4.23-3.39,0,0-6-4.45-8.65-4.06,0,0-9.52-7.26-11.57-7.56l8.71,3.06s6.78-1,1.27-4.46l-14.34-7.82-7.28-14.11Z"/></svg>