<svg id="Ebene_1" data-name="Ebene 1" xmlns="http://www.w3.org/2000/svg" viewBox="0 0 366.94 350.02"><defs><style>.cls-1,.cls-2,.cls-3,.cls-4,.cls-7,.cls-8{isolation:isolate;}.cls-2,.cls-3{font-size:41.44px;font-family:GoodPro-Light, Good Pro;font-weight:300;}.cls-2,.cls-3,.cls-4,.cls-8{fill:#ec613d;}.cls-2{letter-spacing:0.14em;}.cls-4{opacity:0.69;}.cls-5,.cls-7{fill:#af4b27;}.cls-6{fill:none;}.cls-7{font-size:24px;}.cls-7,.cls-8{font-family:Poppins-Medium, Poppins;font-weight:500;}.cls-8{font-size:14px;}</style></defs><title>Zeichenfläche 3</title><g class="cls-1"><text class="cls-2" transform="translate(43.5 162.24) scale(1.03 1)">manoaman</text><text class="cls-3" transform="translate(281.42 162.24) scale(1.03 1)">o</text></g><ellipse class="cls-4" cx="175.6" cy="191.71" rx="15.21" ry="23.42" transform="translate(-83.53 170.8) rotate(-42.9)"/><path class="cls-5" d="M191.46,208.52c1.64-1.23-1.84-16.13-17.32-20.66,0,0-.4,1.07,1.68,2,0,0,2.43,2.67,3.7,2.73,0,0,3.81,4.33,4.75,4.66L180.45,195s-3.3-.15-1,2l6,5,2.11,7.35Z"/><path class="cls-5" d="M157.68,177.2c-1.37,1.53,5,15.46,21,16.87,0,0,.18-1.13-2-1.63,0,0-2.91-2.14-4.17-2,0,0-4.58-3.5-5.57-3.64l4.19,1.47s3.27-.5.61-2.15l-6.91-3.77-3.5-6.8Z"/><rect class="cls-6" x="41.51" y="218.45" width="268.92" height="54.65"/><g class="cls-1"><text class="cls-7" transform="translate(45.57 236.21)">direkt. fair. persönlich.</text><text class="cls-8" transform="translate(99.65 253.01)">Cooperativa ElGuineo</text></g></svg>