<?xml version="1.0" encoding="utf-8"?>
<!-- Generator: Adobe Illustrator 23.0.3, SVG Export Plug-In . SVG Version: 6.00 Build 0)  -->
<svg version="1.1" id="Ebene_1" xmlns="http://www.w3.org/2000/svg" xmlns:xlink="http://www.w3.org/1999/xlink" x="0px" y="0px"
	 viewBox="0 0 595.28 841.89" style="enable-background:new 0 0 595.28 841.89;" xml:space="preserve">
<style type="text/css">
	.st0{opacity:0.5;fill:#AF4B27;stroke:#AF4B27;stroke-miterlimit:10;}
	.st1{opacity:0.5;fill:#EC613D;stroke:#AF4B27;stroke-miterlimit:10;}
	.st2{fill:none;stroke:#000000;stroke-miterlimit:10;}
	.st3{stroke:#000000;stroke-miterlimit:10;}
	.st4{fill:none;stroke:#000000;stroke-width:1.5;stroke-miterlimit:10;}
	.st5{fill:none;stroke:#AF4B27;stroke-miterlimit:10;}
	.st6{fill:#EC613D;}
	.st7{font-family:'Poppins-Medium';}
	.st8{font-size:41.4356px;}
	.st9{letter-spacing:5.8;}
	.st10{fill:none;}
	.st11{fill:#AF4B27;}
	.st12{font-size:24px;}
	.st13{font-size:14px;}
	.st14{stroke:#000000;stroke-width:1.5;stroke-miterlimit:10;}
	.st15{fill:none;stroke:#EC613D;stroke-width:2;stroke-miterlimit:10;}
	.st16{fill:none;stroke:#000000;stroke-width:4;stroke-miterlimit:10;}
	.st17{fill:none;stroke:#000000;stroke-width:3;stroke-miterlimit:10;}
	.st18{fill:none;stroke:#000000;stroke-width:0.75;stroke-miterlimit:10;}
	.st19{fill:none;stroke:#EC613D;stroke-width:3;stroke-miterlimit:10;}
</style>
<text transform="matrix(1.0344 0 0 1 68.5128 71.2578)"><tspan x="0" y="0" class="st6 st7 st8 st9">manoaman>o</tspan></text>
<rect x="63.99" y="82.64" class="st10" width="268.92" height="54.65"/>
<text transform="matrix(1 0 0 1 68.053 100.4045)"><tspan x="0" y="0" class="st11 st7 st12">direkt. fair. persönlich.</tspan><tspan x="54.08" y="16.8" class="st6 st7 st13">Cooperativa ElGuineo</tspan></text>
<g>
	<path class="st2" d="M435.4,442.21c0,77.44-62.78,140.22-140.22,140.22s-140.22-62.78-140.22-140.22c0-34,12.1-65.17,32.23-89.45
		c25.72-31.02,64.55-50.77,107.99-50.77C372.62,301.99,435.4,364.77,435.4,442.21z"/>
	<path class="st2" d="M136.94,316.59l47.21,35.4l31.68-26.71c0,0-24.22-15.53-30.44-14.29C185.39,311,170.48,314.72,136.94,316.59z"
		/>
	<path class="st2" d="M215.82,325.28c0,0-25.47-16.15-30.44-14.29c0,0,19.88-1.86,31.68-9.32c0,0,78.88,25.47,125.47,9.32l32.92-8.7
		l9.94,29.81"/>
	<polyline class="st4" points="375.46,304.3 417.69,284.91 450.61,384.91 	"/>
	<path class="st3" d="M213.96,301.68c0,0,53.42,32.92,159.01,1.24c-42.24-15.53-77.02-45.34-77.02-45.34
		c-11.18,15.53-78.88,44.1-78.88,44.1"/>
	<path class="st14" d="M215.82,579.95c0,0,18.01-6.21,26.71-7.45"/>
	<path class="st14" d="M348.13,572.49c0,0,9.32-1.24,23.6,6.21"/>
	<path class="st15" d="M435.4,442.21c0,77.6-62.78,140.51-140.22,140.51s-140.22-62.91-140.22-140.51
		c0-34.07,12.1-65.31,32.23-89.64c25.72-31.08,64.55-50.88,107.99-50.88C372.62,301.7,435.4,364.61,435.4,442.21z"/>
	<path class="st15" d="M588.94,472.14c0,77.6-62.78,140.51-140.22,140.51S308.5,549.74,308.5,472.14c0-34.07,12.1-65.31,32.23-89.64
		c25.72-31.08,64.55-50.88,107.99-50.88C526.16,331.62,588.94,394.53,588.94,472.14z"/>
	<path class="st15" d="M690.43,610.07c0,77.6-62.78,140.51-140.22,140.51s-140.22-62.91-140.22-140.51
		c0-34.07,12.1-65.31,32.23-89.64c25.72-31.08,64.55-50.88,107.99-50.88C627.65,469.55,690.43,532.46,690.43,610.07z"/>
	<path class="st15" d="M729.47,714.16c0,77.6-62.78,140.51-140.22,140.51s-140.22-62.91-140.22-140.51
		c0-34.07,12.1-65.31,32.23-89.64c25.72-31.08,64.55-50.88,107.99-50.88C666.69,573.65,729.47,636.56,729.47,714.16z"/>
	<path class="st15" d="M700.84,831.27c0,77.6-62.78,140.51-140.22,140.51S420.4,908.87,420.4,831.27c0-34.07,12.1-65.31,32.23-89.64
		c25.72-31.08,64.55-50.88,107.99-50.88C638.06,690.76,700.84,753.67,700.84,831.27z"/>
</g>
<path class="st5" d="M312.67,466.28c0,77.44-62.78,140.22-140.22,140.22S32.23,543.73,32.23,466.28c0-34,12.1-65.17,32.23-89.45
	c25.72-31.02,64.55-50.77,107.99-50.77C249.89,326.06,312.67,388.84,312.67,466.28z"/>
<path class="st5" d="M156.53,575.58c0,77.44-62.78,140.22-140.22,140.22s-140.22-62.78-140.22-140.22c0-34,12.1-65.17,32.23-89.45
	c25.72-31.02,64.55-50.77,107.99-50.77C93.75,435.36,156.53,498.14,156.53,575.58z"/>
<path class="st5" d="M135.71,681.42c0,77.44-62.78,140.22-140.22,140.22s-140.22-62.78-140.22-140.22c0-34,12.1-65.17,32.23-89.45
	c25.72-31.02,64.55-50.77,107.99-50.77C72.93,541.19,135.71,603.97,135.71,681.42z"/>
<path class="st5" d="M161.73,889.61c0,77.44-62.78,140.22-140.22,140.22s-140.22-62.78-140.22-140.22c0-34,12.1-65.17,32.23-89.45
	c25.72-31.02,64.55-50.77,107.99-50.77C98.95,749.39,161.73,812.17,161.73,889.61z"/>
<path class="st5" d="M213.78,972.89c0,77.44-62.78,140.22-140.22,140.22s-140.22-62.78-140.22-140.22c0-34,12.1-65.17,32.23-89.45
	c25.72-31.02,64.55-50.77,107.99-50.77C151,832.66,213.78,895.44,213.78,972.89z"/>
<path class="st5" d="M434.12,441.99c0,77.44-62.78,140.22-140.22,140.22s-140.22-62.78-140.22-140.22c0-34,12.1-65.17,32.23-89.45
	c25.72-31.02,64.55-50.77,107.99-50.77C371.34,301.77,434.12,364.55,434.12,441.99z"/>
<rect x="146.34" y="609.63" class="st10" width="305.35" height="74.6"/>
<text transform="matrix(1 0 0 1 202.0286 619.992)" class="st7 st13">Tu apoyo es nuestro placerl</text>
</svg>
