<?xml version="1.0" encoding="utf-8"?>
<!-- Generator: Adobe Illustrator 23.0.3, SVG Export Plug-In . SVG Version: 6.00 Build 0)  -->
<svg version="1.1" id="Ebene_1" xmlns="http://www.w3.org/2000/svg" xmlns:xlink="http://www.w3.org/1999/xlink" x="0px" y="0px"
	 viewBox="0 0 595.28 841.89" style="enable-background:new 0 0 595.28 841.89;" xml:space="preserve">
<style type="text/css">
	.st0{fill:#EC613D;}
	.st1{font-family:'GoodPro-Light';}
	.st2{font-size:41.4356px;}
	.st3{letter-spacing:5.8;}
	.st4{fill:none;}
	.st5{fill:#AF4B27;}
	.st6{font-family:'Poppins-Medium';}
	.st7{font-size:24px;}
	.st8{font-size:14px;}
	.st9{opacity:0.5;fill:#AF4B27;stroke:#AF4B27;stroke-miterlimit:10;}
	.st10{opacity:0.5;fill:#EC613D;stroke:#AF4B27;stroke-miterlimit:10;}
	.st11{fill:none;stroke:#000000;stroke-miterlimit:10;}
	.st12{stroke:#000000;stroke-miterlimit:10;}
	.st13{fill:none;stroke:#000000;stroke-width:1.5;stroke-miterlimit:10;}
	.st14{fill:none;stroke:#AF4B27;stroke-miterlimit:10;}
	.st15{stroke:#000000;stroke-width:1.5;stroke-miterlimit:10;}
	.st16{fill:none;stroke:#EC613D;stroke-width:2;stroke-miterlimit:10;}
	.st17{fill:none;stroke:#000000;stroke-width:4;stroke-miterlimit:10;}
	.st18{fill:none;stroke:#000000;stroke-width:3;stroke-miterlimit:10;}
	.st19{fill:none;stroke:#000000;stroke-width:0.75;stroke-miterlimit:10;}
	.st20{font-size:18px;}
	.st21{fill:none;stroke:#EC613D;stroke-width:3;stroke-miterlimit:10;}
</style>
<text transform="matrix(1.0344 0 0 1 60.9993 66.1365)"><tspan x="0" y="0" class="st0 st1 st2 st3">manoaman</tspan><tspan x="230.01" y="0" class="st0 st1 st2">o</tspan></text>
<rect x="56.48" y="77.52" class="st4" width="268.92" height="54.65"/>
<text transform="matrix(1 0 0 1 60.5393 95.2832)"><tspan x="0" y="0" class="st5 st6 st7">direkt. fair. persönlich.</tspan><tspan x="54.08" y="16.8" class="st0 st6 st8">Cooperativa ElGuineo</tspan></text>
<rect x="56.09" y="155" class="st11" width="462.75" height="174.86"/>
<g>
	<polygon class="st11" points="55.9,631.18 195.84,631.65 195.84,530.3 56.83,530.76 55.99,621.42 	"/>
	<line class="st11" x1="194.91" y1="621.42" x2="55.99" y2="621.42"/>
	<line class="st11" x1="56.83" y1="540.53" x2="194.91" y2="540.53"/>
	<path class="st11" d="M85.81,621.26l1.86-14.88c0,0,27.89-15.34,79.03-1.39l1.39,16.74"/>
	<path class="st11" d="M102.39,561.45c0,0,20.92-9.3,48.35,0C150.74,561.45,129.35,568.19,102.39,561.45z"/>
	<path class="st11" d="M86.12,530.14l1.24-16.12c0,0,39.05-15.5,79.96,0v15.5"/>
	<path class="st11" d="M105.49,509.22l-15.65-32.39c0,0,10.71-8.03,27.25-10.13c12.7-1.61,28.84,0.28,46.21,11.99l-13.95,29.75"/>
	<path class="st12" d="M135.4,466.84l-0.23-11.62c0,0-8.83-10.31-18.13,0.23l0.05,11.26"/>
	<path class="st12" d="M166.08,450.64c0,0,3.41-9.61,0-25.41C161.12,446.92,166.08,450.64,166.08,450.64h-40.29H166.08z"/>
	<rect x="56.83" y="530.76" class="st12" width="138.08" height="9.76"/>
	<rect x="55.99" y="621.42" class="st12" width="139.85" height="10.23"/>
</g>
<g>
	<path class="st11" d="M233.51,631.66c0,0,1.51-67.05,48.59-101.71c0,0-45.2-50.1-43.32-73.08c0,0,39.55-25.24,87.77-0.75
		c0.76-2.8-10.92,38.8-42.57,73.46c0,0,41.06,35.79,48.59,103.22L233.51,631.66z"/>
	<path class="st11" d="M216.18,474.58l22.6-17.7c0,0,2.26,23.36,18.65,42l-13.87-8.17L216.18,474.58z"/>
	<line class="st11" x1="260.82" y1="550.3" x2="243.56" y2="490.7"/>
	<line class="st19" x1="269.86" y1="541.25" x2="269.3" y2="611.32"/>
	<line class="st19" x1="291.9" y1="538.43" x2="292.47" y2="611.89"/>
	<line class="st19" x1="291.27" y1="469.49" x2="291.7" y2="520.63"/>
	<line class="st19" x1="269.18" y1="469.38" x2="269.62" y2="515.07"/>
	<path class="st12" d="M270.2,445.38l-1.67-12.59c0,0,9.83-17.62,22.99-3.11l0.73,15.57"/>
	<line class="st11" x1="238.79" y1="456.87" x2="326.56" y2="456.12"/>
	<polyline class="st11" points="299.81,547.47 324.11,481.92 320.72,472.88 	"/>
	<path class="st13" d="M322.41,468.36l16.95,1.13c0,0-11.87,24.86-9.61,32.77"/>
</g>
<polygon class="st11" points="398.02,633.08 492.59,633.08 492.06,491.52 492.01,478.25 397.43,476.68 "/>
<polyline class="st11" points="492.06,491.52 502.72,487.32 508.15,487.32 528.22,492.8 527.74,560.61 492.8,586.14 "/>
<path class="st11" d="M397.43,476.68c0,0-26.15,17.85-32.88,14.88l32.13,25.82"/>
<line class="st11" x1="443.98" y1="459.58" x2="444" y2="569.45"/>
<path class="st12" d="M385.93,459.58l119.3,1.28C505.23,460.86,453.27,399.25,385.93,459.58z"/>
<path class="st12" d="M433.8,432.9v-11.87c0,0,10.39-14.1,20.78-0.74l0.74,13.36"/>
<rect x="398.18" y="620.09" width="94.41" height="12.99"/>
<path class="st13" d="M420.73,569.17c7.24,0,47.03,0,47.03,0"/>
<rect x="72.7" y="177.62" class="st4" width="426.62" height="119.71"/>
<text transform="matrix(1 0 0 1 72.7058 190.9393)"><tspan x="0" y="0" class="st6 st20">Empfehlung:  als ganze Bohne kaufen und für </tspan><tspan x="0" y="21.6" class="st6 st20">den Espressokocher oder die Pressstempel</tspan><tspan x="386.17" y="21.6" class="st6 st20">-</tspan><tspan x="0" y="43.2" class="st6 st20">kanne verwenden.</tspan><tspan x="0" y="86.4" class="st6 st20">Auf Wunsch mahlen wir aber auch für euch!</tspan></text>
<line class="st21" x1="6.17" y1="634.34" x2="599.52" y2="635.64"/>
</svg>
