<?xml version="1.0" encoding="utf-8"?>
<!-- Generator: Adobe Illustrator 23.0.3, SVG Export Plug-In . SVG Version: 6.00 Build 0)  -->
<svg version="1.1" id="Ebene_1" xmlns="http://www.w3.org/2000/svg" xmlns:xlink="http://www.w3.org/1999/xlink" x="0px" y="0px"
	 viewBox="0 0 595.28 841.89" style="enable-background:new 0 0 595.28 841.89;" xml:space="preserve">
<style type="text/css">
	.st0{fill:#EC613D;}
	.st1{font-family:'GoodPro-Light';}
	.st2{font-size:41.4356px;}
	.st3{letter-spacing:5.8;}
	.st4{fill:none;}
	.st5{fill:#AF4B27;}
	.st6{font-family:'Poppins-Medium';}
	.st7{font-size:24px;}
	.st8{font-size:14px;}
	.st9{opacity:0.5;fill:#AF4B27;stroke:#AF4B27;stroke-miterlimit:10;}
	.st10{opacity:0.5;fill:#EC613D;stroke:#AF4B27;stroke-miterlimit:10;}
	.st11{fill:none;stroke:#000000;stroke-miterlimit:10;}
	.st12{stroke:#000000;stroke-miterlimit:10;}
	.st13{fill:none;stroke:#000000;stroke-width:1.5;stroke-miterlimit:10;}
	.st14{fill:none;stroke:#AF4B27;stroke-miterlimit:10;}
	.st15{stroke:#000000;stroke-width:1.5;stroke-miterlimit:10;}
	.st16{fill:none;stroke:#EC613D;stroke-width:2;stroke-miterlimit:10;}
	.st17{fill:none;stroke:#000000;stroke-width:4;stroke-miterlimit:10;}
	.st18{fill:none;stroke:#000000;stroke-width:3;stroke-miterlimit:10;}
	.st19{fill:none;stroke:#000000;stroke-width:0.75;stroke-miterlimit:10;}
	.st20{fill:none;stroke:#EC613D;stroke-width:3;stroke-miterlimit:10;}
</style>
<g>
	<path class="st16" d="M272.03,394.5c0,7.6-6.15,13.75-13.73,13.75c-7.58,0-13.73-6.16-13.73-13.75c0-3.33,1.18-6.39,3.15-8.77
		c2.52-3.04,6.32-4.98,10.57-4.98C265.89,380.75,272.03,386.9,272.03,394.5z"/>
	<path class="st16" d="M261.46,371.97c0,7.6-6.15,13.75-13.73,13.75s-13.73-6.16-13.73-13.75c0-3.34,1.18-6.39,3.15-8.77
		c2.52-3.04,6.32-4.98,10.57-4.98C255.32,358.22,261.46,364.38,261.46,371.97z"/>
	<path class="st16" d="M238.2,299.95c0,7.6-6.15,13.75-13.73,13.75s-13.73-6.16-13.73-13.75c0-3.34,1.18-6.39,3.15-8.77
		c2.52-3.04,6.32-4.98,10.57-4.98C232.06,286.19,238.2,292.35,238.2,299.95z"/>
	<path class="st16" d="M305.86,319.46c0,7.6-6.15,13.75-13.73,13.75c-7.58,0-13.73-6.16-13.73-13.75c0-3.34,1.18-6.39,3.15-8.77
		c2.52-3.04,6.32-4.98,10.57-4.98C299.72,305.71,305.86,311.87,305.86,319.46z"/>
	<path class="st16" d="M304.56,365.01c0,7.6-6.15,13.75-13.73,13.75c-7.58,0-13.73-6.16-13.73-13.75c0-3.34,1.18-6.39,3.15-8.77
		c2.52-3.04,6.32-4.98,10.57-4.98C298.42,351.25,304.56,357.41,304.56,365.01z"/>
	<path class="st16" d="M318.29,365.01c0,7.6-6.15,13.75-13.73,13.75c-7.58,0-13.73-6.16-13.73-13.75c0-3.34,1.18-6.39,3.15-8.77
		c2.52-3.04,6.32-4.98,10.57-4.98C312.14,351.25,318.29,357.41,318.29,365.01z"/>
	<path class="st16" d="M308.47,385.83c0,7.6-6.15,13.75-13.73,13.75c-7.58,0-13.73-6.16-13.73-13.75c0-3.34,1.18-6.39,3.15-8.77
		c2.52-3.04,6.32-4.98,10.57-4.98C302.32,372.07,308.47,378.23,308.47,385.83z"/>
</g>
<rect x="144.61" y="656.48" class="st4" width="305.35" height="74.6"/>
<g>
	<path class="st11" d="M211.13,637.16l153.51,1.13c0,0,29.35-67.73,20.32-158.03c0,0-94.82-36.12-188.5,0
		C196.46,480.26,179.53,554.76,211.13,637.16z"/>
	<line class="st13" x1="219.79" y1="269.94" x2="284.5" y2="470.1"/>
	<path class="st11" d="M241.61,343.68c-57.94,39.13-142.98,38.38-142.98,38.38l107.61-82.02h22.58L241.61,343.68z"/>
	<path class="st11" d="M248.38,367.01c0,0-73.75,12.79-121.15,111.37c0,0,90.3-12.04,129.43-100.08L248.38,367.01z"/>
	<path class="st11" d="M288.26,312.83c0,0,93.31-103.47,187-0.75C475.26,312.08,395.87,416.3,288.26,312.83z"/>
	<path class="st11" d="M290.14,364c0,0,114-7.9,159.15,116.26c0,0-63.21-14.67-161.41-98.2"/>
	<path class="st11" d="M286.76,317.72l0.75,145.61l0.02-4.52l0.73-145.98l22.58-24.08c0,0,3.76-65.47,60.95-106.1
		c0,0-24.08,65.47-57.19,102.34"/>
	<path class="st12" d="M228.06,472.36c0,0,51.92,23.7,124.16,0C352.23,472.36,287.89,461.07,228.06,472.36z"/>
</g>
</svg>
